<svg width="30" height="37" viewBox="0 0 30 37" fill="none" xmlns="http://www.w3.org/2000/svg">
<rect width="30" height="37" fill="#F5F5F5"/>
<rect width="1600" height="3630" transform="translate(-1340 -48)" fill="#191919"/>
<g clip-path="url(#clip0_0_1)">
<path d="M15.0001 0.942383C7.0471 0.942383 0.600098 8.70064 0.600098 18.2712C0.600098 27.8418 7.0471 35.6 15.0001 35.6C22.9531 35.6 29.4001 27.8418 29.4001 18.2712C29.4001 8.70064 22.9531 0.942383 15.0001 0.942383ZM11.4751 25.4536H8.5591V14.161H11.4751V25.4536ZM9.9991 12.7747C9.0781 12.7747 8.4826 11.9895 8.4826 11.0184C8.4826 10.0274 9.0961 9.26563 10.0366 9.26563C10.9771 9.26563 11.5531 10.0274 11.5711 11.0184C11.5711 11.9895 10.9771 12.7747 9.9991 12.7747ZM22.1251 25.4536H19.2091V19.1954C19.2091 17.7387 18.7861 16.7495 17.7316 16.7495C16.9261 16.7495 16.4476 17.4192 16.2361 18.0636C16.1581 18.2929 16.1386 18.6178 16.1386 18.9409V25.4518H13.2211V17.7622C13.2211 16.3524 13.1836 15.1737 13.1446 14.1592H15.6781L15.8116 15.7278H15.8701C16.2541 14.9914 17.1946 13.9047 18.7681 13.9047C20.6866 13.9047 22.1251 15.4517 22.1251 18.7766V25.4536Z" fill="#A7A7A7"/>
</g>
<defs>
<clipPath id="clip0_0_1">
<rect width="30" height="36.1017" fill="white" transform="translate(0 0.220337)"/>
</clipPath>
</defs>
</svg>
