<svg width="30" height="36" viewBox="0 0 30 36" fill="none" xmlns="http://www.w3.org/2000/svg">
<rect width="30" height="36" fill="#F5F5F5"/>
<rect width="1600" height="3630" transform="translate(-1240 -48)" fill="#191919"/>
<path fill-rule="evenodd" clip-rule="evenodd" d="M15 0.220337C6.7125 0.220337 0 8.29809 0 18.2712C0 26.2587 4.29375 33.0052 10.2563 35.3969C11.0063 35.5549 11.2875 35.0133 11.2875 34.5395C11.2875 34.1108 11.2688 32.6893 11.2688 31.1775C7.5 32.0124 6.525 30.0719 6.225 29.0566C6.05625 28.5376 5.325 26.9356 4.6875 26.5069C4.1625 26.1684 3.4125 25.3336 4.66875 25.311C5.85 25.2885 6.69375 26.6197 6.975 27.1612C8.325 29.8914 10.4812 29.1243 11.3438 28.6504C11.475 27.4771 11.8688 26.6874 12.3 26.2361C8.9625 25.7849 5.475 24.228 5.475 17.3235C5.475 15.3605 6.05625 13.7359 7.0125 12.4724C6.8625 12.0211 6.3375 10.1709 7.1625 7.68888C7.1625 7.68888 8.41875 7.21504 11.2875 9.53909C12.4875 9.13294 13.7625 8.92987 15.0375 8.92987C16.3125 8.92987 17.5875 9.13294 18.7875 9.53909C21.6562 7.19248 22.9125 7.68888 22.9125 7.68888C23.7375 10.1709 23.2125 12.0211 23.0625 12.4724C24.0188 13.7359 24.6 15.3379 24.6 17.3235C24.6 24.2505 21.0938 25.7849 17.7563 26.2361C18.3 26.8002 18.7688 27.8833 18.7688 29.5755C18.7688 31.9898 18.75 33.9303 18.75 34.5395C18.75 35.0133 19.0312 35.5774 19.7812 35.3969C22.759 34.1871 25.3465 31.8841 27.1796 28.8119C29.0127 25.7398 29.9991 22.0533 30 18.2712C30 8.29809 23.2875 0.220337 15 0.220337Z" fill="#A7A7A7"/>
</svg>
